<svg width="44" height="63" viewBox="0 0 44 63" fill="none" xmlns="http://www.w3.org/2000/svg">
<path d="M22 0C34.2571 0 44 9.765 44 22.05C44 38.43 22 63 22 63C22 63 0 38.43 0 22.05C0 9.765 9.74286 0 22 0Z" fill="#0073FF"/>
<path d="M29.8499 42.826L31.0581 42.175L29.3018 38.9155L28.0936 39.5665L29.8499 42.826Z" fill="white"/>
<path d="M29.8435 42.8138L28.1053 39.5597L29.3081 38.9272L31.0396 42.1693L29.8435 42.8138Z" fill="white"/>
<path d="M15.2954 22.8727L26.0859 39.1273L30.0391 36.9971L22.3981 19.0455L15.2954 22.8727ZM30.0391 36.9971L22.3981 19.0455Z" fill="white"/>
<path d="M26.0795 39.1154L15.3066 22.8653L22.4043 19.0575L30.0218 36.9911L26.0795 39.1154Z" fill="white"/>
<path d="M13.9815 21.9155L22.3213 17.4217C22.8198 15.8255 22.7165 14.0472 21.9285 12.442L10.0385 18.8488C10.9457 20.3896 12.3742 21.4539 13.9815 21.9155Z" fill="white"/>
<path d="M22.3084 17.4178L13.975 21.9036C12.3299 21.4271 10.9325 20.3402 10.0504 18.842L21.9348 12.454C22.6699 13.9828 22.8172 15.7216 22.3309 17.3441L22.3084 17.4178Z" fill="white"/>
<path d="M12.6513 9.46124C9.84845 10.9715 8.54853 14.1746 9.31979 17.1244L20.8836 10.8934C18.8441 8.62692 15.4541 7.95096 12.6513 9.46124Z" fill="white"/>
<path d="M9.31335 17.1124C9.02001 15.924 9.04298 14.6619 9.39982 13.4712C9.91667 11.7465 11.0737 10.3267 12.6576 9.47311C15.4005 7.99527 18.7715 8.57812 20.8618 10.8896L9.31335 17.1124Z" fill="white"/>
</svg>
